<?xml version="1.0" encoding="utf-8"?>
<!-- Generator: Adobe Illustrator 15.1.1, SVG Export Plug-In . SVG Version: 6.00 Build 0)  -->
<!DOCTYPE svg PUBLIC "-//W3C//DTD SVG 1.1//EN" "http://www.w3.org/Graphics/SVG/1.1/DTD/svg11.dtd">
<svg version="1.1"
	 id="svg4355" sodipodi:docname="logo.svg" inkscape:version="0.48.2 r9819" xmlns:sodipodi="http://sodipodi.sourceforge.net/DTD/sodipodi-0.dtd" xmlns:inkscape="http://www.inkscape.org/namespaces/inkscape" xmlns:svg="http://www.w3.org/2000/svg" xmlns:rdf="http://www.w3.org/1999/02/22-rdf-syntax-ns#" xmlns:cc="http://creativecommons.org/ns#" xmlns:dc="http://purl.org/dc/elements/1.1/"
	 xmlns="http://www.w3.org/2000/svg" xmlns:xlink="http://www.w3.org/1999/xlink" x="0px" y="0px" width="49.013px"
	 height="41.123px" viewBox="2.325 5.211 49.013 41.123" enable-background="new 2.325 5.211 49.013 41.123" xml:space="preserve">
<sodipodi:namedview  bordercolor="#666666" id="base" pagecolor="#ffffff" borderopacity="1.0" inkscape:pageopacity="0.0" inkscape:pageshadow="2" inkscape:zoom="0.7" inkscape:cx="375" inkscape:cy="501.792" inkscape:document-units="px" showgrid="false" inkscape:window-width="1600" inkscape:current-layer="layer1" inkscape:window-height="876" inkscape:window-x="0" inkscape:window-y="24" inkscape:window-maximized="1">
	</sodipodi:namedview>
<g id="layer1" transform="translate(0,-1002.3622)" inkscape:label="Layer 1" inkscape:groupmode="layer">
	<path id="path3974" inkscape:connector-curvature="0" fill="#F59614" d="M30.893,1007.583c-4.979,0-10.006,0.831-14.334,3.426
		c-5.042,2.614-10.227,5.848-12.494,11.3c-1.96,3.498-2.529,7.947-0.316,11.465c1.211,2.832,4.583,3.023,7.066,4.079
		c1.173,0.406,2.861-0.15,3.698,0.535c0.673,3.681,4.747,5.034,7.992,5.421c1.811,0.266,2.955-1.775,4.575-1.805
		c3.048,1.307,4.239,5.09,7.085,6.66c1.488,0.31,1.886-1.755,3.437-1.448c4.359,0.043,8.24-3.021,9.52-7.123
		c0.777-2.169,0.937-4.728,2.932-6.169c2.756-3.91,0.486-8.826-1.332-12.616c-2.546-5.011-6.476-9.389-11.197-12.414
		C35.494,1007.801,33.175,1007.516,30.893,1007.583z M31.713,1010.131c6.992,0.132,11.991,6.075,14.9,11.868
		c1.767,3.236,3.47,7.331,1.249,10.778c-2.378,2.295-2.291,6.113-4.691,8.417c-1.648,2.045-4.292,2.593-6.757,2.829
		c-0.857,0.283-1.416,1.678-2.452,0.704c-2.138-1.26-3.501-4.03-5.965-4.71c-1.896,0.245-3.548,2.025-5.541,1.032
		c-2.397-0.71-5.34-1.427-6.004-4.218c-0.701-1.312-2.496,0-3.591-0.754c-2.733-0.496-5.66-1.996-6.255-4.99
		c-1.446-4.281,0.39-8.862,3.263-12.075c3.285-3.831,8.207-5.765,12.732-7.771C25.509,1010.347,28.665,1010.127,31.713,1010.131z"/>
</g>
</svg>
